<mxfile host="app.diagrams.net" agent="Mozilla/5.0 (Windows NT 10.0; Win64; x64) AppleWebKit/537.36 (KHTML, like Gecko) Chrome/129.0.0.0 Safari/537.36" version="24.8.0">
  <diagram name="Trang-1" id="4Bfgcx0LbgKjqhHBHOoF">
    <mxGraphModel dx="611" dy="352" grid="1" gridSize="10" guides="1" tooltips="1" connect="1" arrows="1" fold="1" page="1" pageScale="1" pageWidth="827" pageHeight="1169" math="0" shadow="0">
      <root>
        <mxCell id="0" />
        <mxCell id="1" parent="0" />
        <mxCell id="AREzI05mvqEI8ah1gq5N-1" value="Customer" style="shape=umlActor;verticalLabelPosition=bottom;verticalAlign=top;html=1;outlineConnect=0;" vertex="1" parent="1">
          <mxGeometry x="160" y="130" width="30" height="60" as="geometry" />
        </mxCell>
        <mxCell id="AREzI05mvqEI8ah1gq5N-2" value="Admin" style="shape=umlActor;verticalLabelPosition=bottom;verticalAlign=top;html=1;outlineConnect=0;" vertex="1" parent="1">
          <mxGeometry x="650" y="310" width="30" height="60" as="geometry" />
        </mxCell>
        <mxCell id="AREzI05mvqEI8ah1gq5N-3" value="Staff" style="shape=umlActor;verticalLabelPosition=bottom;verticalAlign=top;html=1;outlineConnect=0;" vertex="1" parent="1">
          <mxGeometry x="660" y="40" width="30" height="60" as="geometry" />
        </mxCell>
        <mxCell id="AREzI05mvqEI8ah1gq5N-8" value="" style="swimlane;startSize=0;" vertex="1" parent="1">
          <mxGeometry x="300" width="280" height="450" as="geometry">
            <mxRectangle x="280" y="10" width="50" height="40" as="alternateBounds" />
          </mxGeometry>
        </mxCell>
        <mxCell id="AREzI05mvqEI8ah1gq5N-9" value="Make Reservation" style="ellipse;whiteSpace=wrap;html=1;" vertex="1" parent="AREzI05mvqEI8ah1gq5N-8">
          <mxGeometry x="10" y="40" width="90" height="40" as="geometry" />
        </mxCell>
        <mxCell id="AREzI05mvqEI8ah1gq5N-10" value="Choose Payment" style="ellipse;whiteSpace=wrap;html=1;" vertex="1" parent="AREzI05mvqEI8ah1gq5N-8">
          <mxGeometry x="160" y="100" width="80" height="50" as="geometry" />
        </mxCell>
        <mxCell id="AREzI05mvqEI8ah1gq5N-11" value="Confirm Reservation" style="ellipse;whiteSpace=wrap;html=1;" vertex="1" parent="AREzI05mvqEI8ah1gq5N-8">
          <mxGeometry x="10" y="280" width="75" height="50" as="geometry" />
        </mxCell>
        <mxCell id="AREzI05mvqEI8ah1gq5N-12" value="Manage Orders" style="ellipse;whiteSpace=wrap;html=1;" vertex="1" parent="AREzI05mvqEI8ah1gq5N-8">
          <mxGeometry x="145" y="280" width="120" height="70" as="geometry" />
        </mxCell>
        <mxCell id="AREzI05mvqEI8ah1gq5N-20" value="Place Order" style="ellipse;whiteSpace=wrap;html=1;" vertex="1" parent="AREzI05mvqEI8ah1gq5N-8">
          <mxGeometry x="190" y="30" width="80" height="50" as="geometry" />
        </mxCell>
        <mxCell id="AREzI05mvqEI8ah1gq5N-21" value="&amp;lt;&amp;lt;include&amp;gt;&amp;gt;" style="endArrow=open;endSize=12;dashed=1;html=1;rounded=0;exitX=1;exitY=0.5;exitDx=0;exitDy=0;entryX=0;entryY=0.5;entryDx=0;entryDy=0;" edge="1" parent="AREzI05mvqEI8ah1gq5N-8" source="AREzI05mvqEI8ah1gq5N-9" target="AREzI05mvqEI8ah1gq5N-20">
          <mxGeometry width="160" relative="1" as="geometry">
            <mxPoint x="150" y="350" as="sourcePoint" />
            <mxPoint x="150" y="300" as="targetPoint" />
            <Array as="points" />
          </mxGeometry>
        </mxCell>
        <mxCell id="AREzI05mvqEI8ah1gq5N-22" value="&amp;lt;&amp;lt;extend&amp;gt;&amp;gt;" style="endArrow=open;endSize=12;dashed=1;html=1;rounded=0;" edge="1" parent="AREzI05mvqEI8ah1gq5N-8" source="AREzI05mvqEI8ah1gq5N-9" target="AREzI05mvqEI8ah1gq5N-10">
          <mxGeometry width="160" relative="1" as="geometry">
            <mxPoint x="134" y="65" as="sourcePoint" />
            <mxPoint x="200" y="65" as="targetPoint" />
            <Array as="points" />
          </mxGeometry>
        </mxCell>
        <mxCell id="AREzI05mvqEI8ah1gq5N-23" value="Confirm Payment" style="ellipse;whiteSpace=wrap;html=1;" vertex="1" parent="AREzI05mvqEI8ah1gq5N-8">
          <mxGeometry x="10" y="360" width="75" height="50" as="geometry" />
        </mxCell>
        <mxCell id="AREzI05mvqEI8ah1gq5N-24" value="&amp;lt;&amp;lt;include&amp;gt;&amp;gt;" style="endArrow=open;endSize=12;dashed=1;html=1;rounded=0;" edge="1" parent="AREzI05mvqEI8ah1gq5N-8" source="AREzI05mvqEI8ah1gq5N-12" target="AREzI05mvqEI8ah1gq5N-23">
          <mxGeometry width="160" relative="1" as="geometry">
            <mxPoint x="107" y="184" as="sourcePoint" />
            <mxPoint x="187" y="220" as="targetPoint" />
            <Array as="points" />
          </mxGeometry>
        </mxCell>
        <mxCell id="AREzI05mvqEI8ah1gq5N-25" value="&amp;lt;&amp;lt;include&amp;gt;&amp;gt;" style="endArrow=open;endSize=12;dashed=1;html=1;rounded=0;" edge="1" parent="AREzI05mvqEI8ah1gq5N-8" source="AREzI05mvqEI8ah1gq5N-12" target="AREzI05mvqEI8ah1gq5N-11">
          <mxGeometry width="160" relative="1" as="geometry">
            <mxPoint x="120" y="170" as="sourcePoint" />
            <mxPoint x="210" y="165" as="targetPoint" />
            <Array as="points" />
          </mxGeometry>
        </mxCell>
        <mxCell id="AREzI05mvqEI8ah1gq5N-26" value="View&lt;div&gt;Tables&lt;/div&gt;" style="ellipse;whiteSpace=wrap;html=1;" vertex="1" parent="AREzI05mvqEI8ah1gq5N-8">
          <mxGeometry x="10" y="120" width="90" height="40" as="geometry" />
        </mxCell>
        <mxCell id="AREzI05mvqEI8ah1gq5N-34" value="Check Customer orders" style="ellipse;whiteSpace=wrap;html=1;" vertex="1" parent="AREzI05mvqEI8ah1gq5N-8">
          <mxGeometry x="150" y="170" width="110" height="70" as="geometry" />
        </mxCell>
        <mxCell id="AREzI05mvqEI8ah1gq5N-18" value="" style="endArrow=none;html=1;rounded=0;exitX=1;exitY=0.3333333333333333;exitDx=0;exitDy=0;exitPerimeter=0;" edge="1" parent="1" source="AREzI05mvqEI8ah1gq5N-1" target="AREzI05mvqEI8ah1gq5N-9">
          <mxGeometry width="50" height="50" relative="1" as="geometry">
            <mxPoint x="220" y="160" as="sourcePoint" />
            <mxPoint x="430" y="200" as="targetPoint" />
            <Array as="points" />
          </mxGeometry>
        </mxCell>
        <mxCell id="AREzI05mvqEI8ah1gq5N-19" value="Make" style="edgeLabel;html=1;align=center;verticalAlign=middle;resizable=0;points=[];" vertex="1" connectable="0" parent="AREzI05mvqEI8ah1gq5N-18">
          <mxGeometry x="0.0006" y="3" relative="1" as="geometry">
            <mxPoint x="-28" y="15" as="offset" />
          </mxGeometry>
        </mxCell>
        <mxCell id="AREzI05mvqEI8ah1gq5N-28" value="" style="endArrow=none;html=1;rounded=0;entryX=1;entryY=0.3333333333333333;entryDx=0;entryDy=0;entryPerimeter=0;" edge="1" parent="1" source="AREzI05mvqEI8ah1gq5N-26" target="AREzI05mvqEI8ah1gq5N-1">
          <mxGeometry width="50" height="50" relative="1" as="geometry">
            <mxPoint x="420" y="250" as="sourcePoint" />
            <mxPoint x="470" y="200" as="targetPoint" />
          </mxGeometry>
        </mxCell>
        <mxCell id="AREzI05mvqEI8ah1gq5N-29" value="View" style="edgeLabel;html=1;align=center;verticalAlign=middle;resizable=0;points=[];" vertex="1" connectable="0" parent="AREzI05mvqEI8ah1gq5N-28">
          <mxGeometry x="-0.0117" y="-2" relative="1" as="geometry">
            <mxPoint as="offset" />
          </mxGeometry>
        </mxCell>
        <mxCell id="AREzI05mvqEI8ah1gq5N-32" value="" style="endArrow=none;html=1;rounded=0;entryX=0;entryY=0.3333333333333333;entryDx=0;entryDy=0;entryPerimeter=0;" edge="1" parent="1" source="AREzI05mvqEI8ah1gq5N-12" target="AREzI05mvqEI8ah1gq5N-2">
          <mxGeometry width="50" height="50" relative="1" as="geometry">
            <mxPoint x="420" y="330" as="sourcePoint" />
            <mxPoint x="470" y="280" as="targetPoint" />
          </mxGeometry>
        </mxCell>
        <mxCell id="AREzI05mvqEI8ah1gq5N-33" value="Confirm" style="edgeLabel;html=1;align=center;verticalAlign=middle;resizable=0;points=[];" vertex="1" connectable="0" parent="AREzI05mvqEI8ah1gq5N-32">
          <mxGeometry x="-0.0799" y="3" relative="1" as="geometry">
            <mxPoint x="28" y="-12" as="offset" />
          </mxGeometry>
        </mxCell>
        <mxCell id="AREzI05mvqEI8ah1gq5N-36" value="" style="endArrow=none;html=1;rounded=0;entryX=0;entryY=0.3333333333333333;entryDx=0;entryDy=0;entryPerimeter=0;" edge="1" parent="1" source="AREzI05mvqEI8ah1gq5N-34" target="AREzI05mvqEI8ah1gq5N-3">
          <mxGeometry width="50" height="50" relative="1" as="geometry">
            <mxPoint x="420" y="410" as="sourcePoint" />
            <mxPoint x="470" y="360" as="targetPoint" />
          </mxGeometry>
        </mxCell>
        <mxCell id="AREzI05mvqEI8ah1gq5N-37" value="Check/ Notified" style="edgeLabel;html=1;align=center;verticalAlign=middle;resizable=0;points=[];" vertex="1" connectable="0" parent="AREzI05mvqEI8ah1gq5N-36">
          <mxGeometry x="-0.2219" y="2" relative="1" as="geometry">
            <mxPoint as="offset" />
          </mxGeometry>
        </mxCell>
        <mxCell id="AREzI05mvqEI8ah1gq5N-38" value="" style="endArrow=none;html=1;rounded=0;exitX=1;exitY=0.5;exitDx=0;exitDy=0;entryX=0;entryY=0.3333333333333333;entryDx=0;entryDy=0;entryPerimeter=0;" edge="1" parent="1" source="AREzI05mvqEI8ah1gq5N-20" target="AREzI05mvqEI8ah1gq5N-3">
          <mxGeometry width="50" height="50" relative="1" as="geometry">
            <mxPoint x="420" y="410" as="sourcePoint" />
            <mxPoint x="670" y="280" as="targetPoint" />
          </mxGeometry>
        </mxCell>
        <mxCell id="AREzI05mvqEI8ah1gq5N-39" value="Support" style="edgeLabel;html=1;align=center;verticalAlign=middle;resizable=0;points=[];" vertex="1" connectable="0" parent="AREzI05mvqEI8ah1gq5N-38">
          <mxGeometry x="-0.0354" y="-4" relative="1" as="geometry">
            <mxPoint as="offset" />
          </mxGeometry>
        </mxCell>
      </root>
    </mxGraphModel>
  </diagram>
</mxfile>
